<svg viewBox="0 0 960 540" xmlns="http://www.w3.org/2000/svg">
  <defs>
    <linearGradient id="gradientFill" x1="0%" y1="0%" x2="100%" y2="100%">
      <stop offset="0%" stop-color="#ffffff" />
      <stop offset="100%" stop-color="#ff9eb5" />
    </linearGradient>
  </defs>
  <g transform="translate(479.88686076514455 284.0750457015751)">
    <path
      d="M122.3 -203.9C154.7 -193.2 174.3 -152.6 180.2 -113.6C186 -74.7 178 -37.3 179.4 0.8C180.9 39 191.8 78 178.3 103.8C164.9 129.7 127.2 142.3 93.4 151C59.7 159.6 29.8 164.2 -2.1 167.8C-34 171.4 -68 174 -93.5 160.7C-119.1 147.3 -136.2 117.9 -158.7 88.4C-181.2 59 -209.1 29.5 -221.1 -6.9C-233.1 -43.3 -229.1 -86.7 -207.2 -117.1C-185.3 -147.6 -145.4 -165.2 -107.9 -172.8C-70.3 -180.5 -35.2 -178.2 4.9 -186.8C45 -195.3 90 -214.6 122.3 -203.9"
      fill="url(#gradientFill)"
    />
  </g>
</svg>
